<?xml version="1.0" encoding="utf-8"?>
<!-- Generator: Adobe Illustrator 23.0.2, SVG Export Plug-In . SVG Version: 6.00 Build 0)  -->
<svg version="1.1" id="Layer_1" xmlns="http://www.w3.org/2000/svg" xmlns:xlink="http://www.w3.org/1999/xlink" x="0px" y="0px"
	 viewBox="0 0 110.6 110.6" style="enable-background:new 0 0 110.6 110.6;" xml:space="preserve">
<style type="text/css">
	.st0{enable-background:new    ;}
	.st1{fill:#FFFFFF;}
	.st2{fill-rule:evenodd;clip-rule:evenodd;fill:#FFFFFF;}
</style>
<g id="Group_7">
	<g class="st0">
		<path class="st1" d="M9.2,98.2l2.9-8.7h2l2.9,8.7h-1.8l-0.7-2.2h-2.9l-0.7,2.2H9.2z M13,91.2L12,94.7h2.2L13,91.2L13,91.2z"/>
		<path class="st1" d="M19.7,97.1L19.7,97.1l-0.1,1H18V89h1.7v3.4h0.1c0.3-0.6,1-1.1,1.9-1.1c1.5,0,2.6,1.1,2.6,3.2v0.6
			c0,2-1,3.2-2.6,3.2C20.7,98.2,20,97.8,19.7,97.1z M22.5,95v-0.5c0-1.2-0.6-1.9-1.4-1.9c-0.9,0-1.5,0.6-1.5,1.9V95
			c0,1.2,0.6,1.9,1.5,1.9C21.9,96.9,22.5,96.3,22.5,95z"/>
		<path class="st1" d="M31.5,94.5V95c0,2-1.1,3.3-3.1,3.3S25.3,97,25.3,95v-0.5c0-1.9,1.1-3.2,3.1-3.2
			C30.4,91.3,31.5,92.7,31.5,94.5z M27,94.5V95c0,1.1,0.4,1.9,1.4,1.9c1,0,1.4-0.9,1.4-1.9v-0.5c0-1.1-0.4-1.9-1.4-1.9
			S27,93.4,27,94.5z"/>
		<path class="st1" d="M38.8,98.2h-1.6v-1h-0.1c-0.2,0.5-0.8,1.1-1.9,1.1c-1.4,0-2.3-0.8-2.3-2.4v-4.4h1.7v4c0,1.1,0.6,1.4,1.3,1.4
			c0.7,0,1.3-0.5,1.3-1.4v-4h1.7V98.2z"/>
		<path class="st1" d="M40.9,89.8h1.6v1.6h1.3v1.3h-1.3V96c0,0.7,0.3,0.9,1,0.9c0.1,0,0.3,0,0.4,0v1.2c-0.1,0-0.4,0.1-0.8,0.1
			c-1.7,0-2.2-0.6-2.2-1.9v-3.5h-1v-1.3h1V89.8z"/>
		<path class="st1" d="M48.3,89.8H50v1.6h1.3v1.3H50V96c0,0.7,0.3,0.9,1,0.9c0.1,0,0.3,0,0.4,0v1.2c-0.1,0-0.4,0.1-0.8,0.1
			c-1.7,0-2.2-0.6-2.2-1.9v-3.5h-1v-1.3h1V89.8z"/>
		<path class="st1" d="M52.7,89h1.7v3.4h0.1c0.2-0.5,0.8-1.1,1.9-1.1c1.4,0,2.3,0.9,2.3,2.5v4.3h-1.7v-4c0-1-0.6-1.4-1.3-1.4
			c-0.9,0-1.3,0.6-1.3,1.5v3.9h-1.7V89z"/>
		<path class="st1" d="M60,95.1v-0.6c0-2,1.2-3.1,3-3.1c1.8,0,3,1.2,3,3.2v0.7h-4.3v0.2c0,1,0.6,1.7,1.4,1.7c0.7,0,1.1-0.3,1.3-0.9
			h1.5c-0.2,1.1-1,2.2-2.8,2.2C61.2,98.3,60,97.1,60,95.1z M64.4,94.1L64.4,94.1c0-0.9-0.5-1.5-1.3-1.5c-0.8,0-1.4,0.7-1.4,1.5v0
			H64.4z"/>
		<path class="st1" d="M69.2,98.2l2.9-8.7h2l2.9,8.7h-1.8l-0.7-2.2h-2.9l-0.7,2.2H69.2z M73,91.2l-1.1,3.5h2.2L73,91.2L73,91.2z"/>
		<path class="st1" d="M81.2,89.5c2.6,0,3.9,1.6,3.9,4.3c0,2.8-1.3,4.4-3.9,4.4H78v-8.7H81.2z M79.7,96.8h1.2c1.4,0,2.3-0.7,2.3-2.9
			c0-1.8-0.6-2.9-2.3-2.9h-1.2V96.8z"/>
		<path class="st1" d="M87.5,95.7c0.1,0.7,0.7,1.3,1.8,1.3c1.1,0,1.6-0.5,1.6-1.2c0-0.6-0.4-0.9-1.3-1.1l-1.3-0.3
			c-1.2-0.3-2.2-0.9-2.2-2.4c0-1.7,1.4-2.6,3.2-2.6c1.9,0,3.2,1,3.2,2.6h-1.6c-0.1-0.6-0.6-1.2-1.6-1.2c-0.9,0-1.5,0.4-1.5,1.1
			c0,0.5,0.4,0.9,1.2,1l1.3,0.3c1.3,0.3,2.3,0.9,2.3,2.4c0,1.7-1.3,2.7-3.4,2.7c-2.5,0-3.3-1.4-3.4-2.6H87.5z"/>
		<path class="st1" d="M93.7,93.3c0-2.5,1.4-4,3.7-4c2.3,0,3.7,1.5,3.7,4v1.1c0,2.4-1.4,3.9-3.7,3.9c-2.3,0-3.7-1.5-3.7-3.9V93.3z
			 M95.5,94.4c0,1.7,0.8,2.5,2,2.5c1.1,0,2-0.8,2-2.5v-1.1c0-1.7-0.8-2.5-2-2.5c-1.1,0-2,0.9-2,2.5V94.4z"/>
	</g>
	<g id="Group_6" transform="translate(468.892 337.979)">
		<path id="Path_25" class="st2" d="M-406.5-293.9c-0.8-1.4-2.1-2.4-3.6-2.9l0.1,0c0.1-0.1,0.3-0.1,0.5-0.2c1.4-0.7,3.1-0.8,4.6-0.4
			c1.6,0.5,3,1.7,3.7,3.2c0.1,0.2,0.2,0.3,0.3,0.5c0.5,1.2,0.7,2.6,0.5,3.9c-0.2,1.5-0.5,2.9-0.9,4.3c-0.5,1.6-1.1,3.2-1.9,4.7
			c-0.4,0.9-0.9,2-1.5,3.3l-0.1,0.6c0.3,2.4,0.2,4.8-0.2,7.2c-0.3,2.2-1,4.3-2,6.3c-0.2,0.2-0.4,0.3-0.6,0.3c-0.3,0-0.6-0.3-0.8-1.1
			c-0.4-1.8-0.6-3.7-0.7-5.5c-0.1-1.2-0.7-3.2-0.9-4.2c0.8-0.4,1.5-1.1,2.1-1.9c-1.7,0.9-3.5,1.3-5.4,1.3c-1.9,0-3.8-0.4-5.4-1.3
			c0.5,0.8,1.1,1.4,1.9,1.8c-0.4,1.6-0.7,3.5-1,5.4c-0.1,0.6-0.2,1.3-0.4,2.2c-0.1,0.5-0.1,1-0.2,1.4c0,0.6-0.1,1.2-0.3,1.8
			c0,0,0,0,0,0.1c-0.1,0-0.1,0.1-0.2,0.1c-0.1,0-0.3,0-0.4-0.1c-0.2-0.1-0.4-0.2-0.5-0.4l0,0c-1-2-1.6-4.1-1.9-6.3
			c-0.4-2.4-0.5-4.8-0.3-7.2l-0.1-0.6c-0.6-1.5-1.2-2.7-1.7-3.8c-0.8-1.5-1.4-3-1.9-4.6c-0.4-1.6-0.6-3.3-0.5-4.9
			c0.1-1.3,0.4-2.6,1-3.8c0.8-1.2,2-2.1,3.4-2.4c1.6-0.4,3.2-0.3,4.7,0.4l0.4,0.2c-1.5,0.5-2.7,1.5-3.5,2.9c2.1-1.1,4.5-1.7,6.9-1.7
			C-411-295.6-408.6-295.1-406.5-293.9z"/>
		<path id="Path_26" class="st2" d="M-439.1-293.4l7.9,3.4l0.7-3L-439.1-293.4z"/>
		<path id="Path_27" class="st2" d="M-388.2-293.4l-7.9,3.4l-0.7-3L-388.2-293.4z"/>
		<path id="Path_28" class="st2" d="M-436.1-275.8l8.1-2.8l-1.5-2.7L-436.1-275.8z"/>
		<path id="Path_29" class="st2" d="M-397-309l-3.5,7.8l-2.5-1.7L-397-309z"/>
		<path id="Path_30" class="st2" d="M-391.1-275.8l-6.4-5.7l-1.6,2.6L-391.1-275.8z"/>
		<path id="Path_31" class="st2" d="M-430.6-308.7l6.3,5.8l-2.4,1.9L-430.6-308.7z"/>
		<path id="Path_32" class="st2" d="M-413.8-314.2l1.7,8.4l-3.1,0L-413.8-314.2z"/>
	</g>
</g>
</svg>
