<svg xmlns="http://www.w3.org/2000/svg" width="237.865" height="49.483" viewBox="0 0 237.865 49.483"><defs><style>.a{fill:#2a7dc2;}.b{fill:#062d57;}</style></defs><g transform="translate(-74 -104.61)"><path class="a" d="M328.966,290.924c-.044.012-.055.052-.044.105l.22,1.356a.313.313,0,0,0,.1.148,2.846,2.846,0,0,0,1.45.349,2.014,2.014,0,0,0,2.243-1.936,1.386,1.386,0,0,0-.4-1.072,2.489,2.489,0,0,0-1.343-.7c-.805-.216-1.206-.377-1.206-.924a.832.832,0,0,1,.923-.765,1.088,1.088,0,0,1,.848.414l.645.724a.083.083,0,0,0,.105.053l.257-.119a.2.2,0,0,0,.012-.148l-.176-.912c-.012-.08-.053-.135-.252-.24a2.574,2.574,0,0,0-1.3-.3,2.23,2.23,0,0,0-1.4.441,1.633,1.633,0,0,0-.682,1.41c0,.953.725,1.406,1.634,1.676.942.268,1.29.511,1.29,1.048a.866.866,0,0,1-.953.815,1.2,1.2,0,0,1-1.156-.725l-.442-.751c-.024-.053-.064-.053-.118-.039Zm-.243-17.214c0,1.37-.457,2.482-1.339,2.482a1.136,1.136,0,0,1-1.063-.575,3.134,3.134,0,0,1-.415-1.865,2.768,2.768,0,0,1,.578-2.015,1.052,1.052,0,0,1,.844-.359c.62,0,1.394.856,1.394,2.333m.805,2.08a3.069,3.069,0,0,0,.832-2.039,2.892,2.892,0,0,0-.923-2.12,2.842,2.842,0,0,0-2.03-.791,2.9,2.9,0,0,0-1.9.642,2.993,2.993,0,0,0-1.13,2.228,2.83,2.83,0,0,0,.724,2.08,2.625,2.625,0,0,0,2.174.967,2.974,2.974,0,0,0,2.254-.967m-7.617,11.979c-.079.029-.133.079-.133.135v.1a.14.14,0,0,0,.106.137l.105.051a.846.846,0,0,1,.565.783V292c0,.213-.189.269-.348.269h-.267c-.109,0-.134.025-.134.105v.253c0,.082.025.137.078.137.082,0,.512-.041,1.341-.041.805,0,1.182.041,1.262.041s.109-.056.109-.137v-.24c0-.094-.028-.119-.133-.119h-.243c-.189,0-.256-.163-.256-.457v-2.765a1.359,1.359,0,0,1,.283-.952,1.248,1.248,0,0,1,.859-.353,1.021,1.021,0,0,1,.807.246c.32.269.348.617.348,1.153v1.54a10.476,10.476,0,0,1-.055,1.261c-.026.246-.133.326-.239.326H325.7c-.137,0-.163.025-.163.105v.227c0,.108.026.163.11.163s.508-.041,1.315-.041c.938,0,1.339.041,1.448.041.079,0,.105-.028.105-.1v-.308c0-.066-.039-.09-.159-.09h-.377c-.159,0-.324-.08-.324-.377,0-.268.016-.859.016-1.289v-1.931a1.522,1.522,0,0,0-.739-1.385,1.87,1.87,0,0,0-1.181-.318,2.134,2.134,0,0,0-1.072.318,2.366,2.366,0,0,0-.671.54h-.082l-.106-.7c-.026-.109-.082-.16-.159-.16a.621.621,0,0,0-.27.108Zm-4.892,2.106a2.759,2.759,0,0,1,.575-2.01,1.056,1.056,0,0,1,.846-.363c.618,0,1.394.858,1.394,2.333,0,1.369-.456,2.482-1.341,2.482a1.127,1.127,0,0,1-1.06-.577,3.119,3.119,0,0,1-.414-1.866m-.4-2.265a2.979,2.979,0,0,0-1.13,2.226,2.828,2.828,0,0,0,.725,2.082,2.618,2.618,0,0,0,2.174.965,2.976,2.976,0,0,0,2.254-.965,3.084,3.084,0,0,0,.833-2.042,2.884,2.884,0,0,0-.924-2.117,2.829,2.829,0,0,0-2.029-.793,2.9,2.9,0,0,0-1.9.644m-4.365,4.657c-.082,0-.135.025-.135.105v.253c0,.109.041.137.11.137.16,0,.671-.041,1.447-.041.9,0,1.516.041,1.625.041.079,0,.105-.056.105-.137v-.268c0-.066-.026-.09-.134-.09h-.537c-.134,0-.188-.109-.216-.349-.025-.162-.025-.644-.025-1.155v-1.449c0-1.117,0-1.972.025-2.188.016-.109-.025-.16-.105-.16a.991.991,0,0,0-.324.079c-.228.094-1.555.565-1.745.645-.067.026-.093.05-.093.109v.145c0,.053.014.094.135.122.615.16.7.428.7.83v1.892c0,.377,0,.8-.03,1.21,0,.213-.08.269-.213.269Zm1.18-6.148a.883.883,0,0,0,.967-.886.826.826,0,0,0-.886-.78.917.917,0,0,0-.992.833.87.87,0,0,0,.911.833m-5.064,3.489c0,.511-.04,1.587-.04,2.065a1.376,1.376,0,0,0,1.41,1.211,2.793,2.793,0,0,0,1.689-.537.171.171,0,0,0,.054-.188l-.08-.16c-.031-.069-.068-.069-.163-.028a1.861,1.861,0,0,1-.777.159c-.271,0-.711-.211-.711-1.259v-1.207c0-.59.013-1.235.04-1.8h1.622c.084,0,.123-.027.137-.08l.136-.565a.084.084,0,0,0-.094-.105h-1.773l.055-1.33c0-.109-.055-.188-.164-.188a.223.223,0,0,0-.213.134,5.769,5.769,0,0,1-1.837,1.692c-.178.068-.257.149-.257.254a.17.17,0,0,0,.188.189h.778Zm-3.269.137V291.5c0,.239-.485.616-.861.644-.317,0-.615-.272-.615-.822,0-.979.884-1.206,1.476-1.58m-1.72-1.249c0-.323-.134-.526.055-.657a1.393,1.393,0,0,1,.78-.241.892.892,0,0,1,.67.2,1.279,1.279,0,0,1,.215.75v.7a14.531,14.531,0,0,1-1.635.83,1.734,1.734,0,0,0-1.235,1.653c0,.75.428,1.153.923,1.153a2.755,2.755,0,0,0,.858-.095,2.579,2.579,0,0,0,1.169-.725h.052a1.105,1.105,0,0,0,1.127.82,1.346,1.346,0,0,0,1.235-.779c.054-.134.029-.186-.025-.214l-.163-.109c-.052-.025-.079-.025-.134.054a.512.512,0,0,1-.427.214c-.245,0-.349-.214-.349-.939v-.641l-.027-2.123a1.257,1.257,0,0,0-.323-1,1.538,1.538,0,0,0-1.234-.376,3.512,3.512,0,0,0-2.174.751,1.428,1.428,0,0,0-.62,1.1.439.439,0,0,0,.457.456.7.7,0,0,0,.8-.778m-6.787-1.583-.805,1.906c-.024.079-.024.105.031.145l.186.109c.04.027.094.013.134-.041,1.074-1.369,1.314-1.475,2.094-1.475h1.181l-3.249,4.87c-.134.219-.078.3.055.3h1.718c.185,0,.8,0,1.419.025a7,7,0,0,1,1.394.136l.968-1.826a.09.09,0,0,0-.026-.132l-.177-.136c-.051-.026-.094-.026-.144.04-.97,1.2-1.613,1.439-1.961,1.439h-1.528l3.354-4.925c.078-.108,0-.216-.134-.216h-1.962a12.624,12.624,0,0,1-1.824-.08,7.335,7.335,0,0,1-.727-.134m-4.256,5.355c-.08,0-.134.025-.134.105v.253c0,.109.04.137.11.137.16,0,.671-.041,1.448-.041.9,0,1.515.041,1.625.041.08,0,.106-.056.106-.137v-.268c0-.066-.026-.09-.136-.09h-.534c-.135,0-.188-.109-.216-.349-.027-.162-.027-.644-.027-1.155v-1.449c0-1.117,0-1.972.027-2.188.016-.109-.027-.16-.106-.16a.978.978,0,0,0-.323.079c-.227.094-1.556.565-1.744.645-.066.026-.094.05-.094.109v.145c0,.053.015.094.136.122.615.16.7.428.7.83v1.892c0,.377,0,.8-.029,1.21,0,.213-.08.269-.212.269Zm1.182-6.148a.88.88,0,0,0,.964-.886.823.823,0,0,0-.884-.78.918.918,0,0,0-.993.833.871.871,0,0,0,.913.833m-8.346,1.651c-.079.029-.132.079-.132.135v.1a.138.138,0,0,0,.109.137l.105.051a.848.848,0,0,1,.565.783V292c0,.213-.189.269-.349.269H285.2c-.109,0-.135.025-.135.105v.253c0,.082.026.137.082.137.079,0,.509-.041,1.339-.041.8,0,1.18.041,1.262.041s.106-.056.106-.137v-.24c0-.094-.025-.119-.133-.119h-.243c-.189,0-.252-.163-.252-.457v-2.765a1.343,1.343,0,0,1,.282-.952,1.247,1.247,0,0,1,.859-.353,1.015,1.015,0,0,1,.8.246c.324.269.348.617.348,1.153v1.54a11.044,11.044,0,0,1-.053,1.261c-.025.246-.135.326-.24.326h-.269c-.135,0-.163.025-.163.105v.227c0,.108.028.163.11.163s.508-.041,1.316-.041c.935,0,1.341.041,1.449.041.08,0,.1-.028.1-.1v-.308c0-.066-.039-.09-.159-.09h-.377c-.161,0-.322-.08-.322-.377,0-.268.014-.859.014-1.289v-1.931a1.526,1.526,0,0,0-.739-1.385,1.872,1.872,0,0,0-1.18-.318,2.145,2.145,0,0,0-1.074.318,2.308,2.308,0,0,0-.67.54h-.078l-.11-.7c-.026-.109-.08-.16-.16-.16a.638.638,0,0,0-.269.108Zm-3.07,1.974V291.5c0,.239-.483.616-.859.644-.32,0-.615-.272-.615-.822,0-.979.884-1.206,1.474-1.58m-1.716-1.249c0-.323-.135-.526.055-.657a1.385,1.385,0,0,1,.779-.241.893.893,0,0,1,.67.2,1.278,1.278,0,0,1,.213.75v.7a14.279,14.279,0,0,1-1.634.83,1.731,1.731,0,0,0-1.233,1.653c0,.75.427,1.153.922,1.153a2.769,2.769,0,0,0,.86-.095,2.594,2.594,0,0,0,1.17-.725h.051a1.106,1.106,0,0,0,1.128.82,1.343,1.343,0,0,0,1.232-.779c.055-.134.032-.186-.024-.214l-.164-.109c-.05-.025-.08-.025-.134.054a.512.512,0,0,1-.427.214c-.244,0-.349-.214-.349-.939v-.641l-.027-2.123a1.25,1.25,0,0,0-.324-1,1.533,1.533,0,0,0-1.231-.376,3.508,3.508,0,0,0-2.175.751,1.429,1.429,0,0,0-.619,1.1.439.439,0,0,0,.457.456.7.7,0,0,0,.805-.778m4.013-17.509h-1.772l.054-1.325c0-.109-.054-.189-.162-.189a.219.219,0,0,0-.213.131,5.74,5.74,0,0,1-1.837,1.695c-.178.065-.257.146-.257.252a.167.167,0,0,0,.186.188h.78v1.745c0,.509-.04,1.584-.04,2.066a1.375,1.375,0,0,0,1.41,1.21,2.806,2.806,0,0,0,1.686-.536.169.169,0,0,0,.054-.188l-.078-.164c-.031-.064-.069-.064-.164-.025a1.9,1.9,0,0,1-.777.16c-.268,0-.709-.214-.709-1.261v-1.21c0-.588.012-1.233.039-1.8h1.622c.085,0,.124-.026.137-.08l.136-.564a.086.086,0,0,0-.1-.106M273.333,294.6a1.19,1.19,0,0,1,.819-1.073l1.207-.078c1.288-.058,1.853.427,1.853,1.206.024.791-1.127,1.195-1.827,1.195a2.751,2.751,0,0,1-1.568-.325,1.156,1.156,0,0,1-.485-.925m.632-5.285a2.586,2.586,0,0,1,.374-1.514.888.888,0,0,1,.724-.338.747.747,0,0,1,.629.268,1.737,1.737,0,0,1,.3,1.061c0,.954-.229,1.878-.929,1.878a.962.962,0,0,1-.763-.3,1.468,1.468,0,0,1-.334-1.058m-1.826,5.583a1.163,1.163,0,0,0,.669,1.058,4.562,4.562,0,0,0,2.1.416,4.193,4.193,0,0,0,2.629-.75,1.879,1.879,0,0,0,.831-1.558,1.593,1.593,0,0,0-.67-1.316,3.068,3.068,0,0,0-2.281-.51c-1.179.054-1.691.054-1.691-.482,0-.323.338-.562.578-.67a3.8,3.8,0,0,0,.763.051,2.3,2.3,0,0,0,1.706-.616,2.127,2.127,0,0,0,.562-1.49,2.086,2.086,0,0,0-.159-.884.522.522,0,0,1,.322-.079.6.6,0,0,1,.319.16.59.59,0,0,0,.416.188.558.558,0,0,0,.539-.537c.026-.347-.2-.643-.7-.643a2.135,2.135,0,0,0-1.14.5,2.316,2.316,0,0,0-1.828-.763c-1.728,0-2.482,1.073-2.482,1.957a2.179,2.179,0,0,0,1.156,2v.022c-.4.189-1.156.646-1.156,1.371a1.063,1.063,0,0,0,.913.992v.08c-.643.267-1.394.781-1.394,1.506m-2.4-22.179c.176-.9.577-1.379,1.232-1.379.7,0,.833.789.833,1.191,0,.109-.159.188-.441.188Zm-.041.9V273.2h3.247c.24,0,.374-.014.374-.214a2.187,2.187,0,0,0-2.025-2.145,2.526,2.526,0,0,0-2.332.993,2.774,2.774,0,0,0-.659,1.985,3.05,3.05,0,0,0,.753,2.216,2.329,2.329,0,0,0,1.93.724,2.657,2.657,0,0,0,2.441-1.424c.094-.175.07-.228,0-.268l-.2-.122c-.054-.026-.106-.026-.162.068a1.821,1.821,0,0,1-1.624.779,2.023,2.023,0,0,1-1.743-2.173m-2.109,18.755v.293c0,.069.024.1.093.1.106,0,.63-.041,1.57-.041.979,0,1.568.041,1.662.041.069,0,.094-.028.094-.1v-.308c0-.066-.025-.09-.106-.09h-.588c-.271,0-.376-.138-.376-.565V289.11a1.542,1.542,0,0,1,.159-.656.7.7,0,0,1,.565-.388.622.622,0,0,1,.375.105,1.03,1.03,0,0,0,.454.109.78.78,0,0,0,.726-.725.654.654,0,0,0-.7-.669,2.08,2.08,0,0,0-1.612,1.206h-.05l-.126-.967c-.01-.08-.039-.16-.118-.16a.783.783,0,0,0-.217.051l-1.619.768c-.084.039-.11.064-.11.12v.082c0,.052.026.081.11.107l.238.134c.4.214.51.428.51,1.047V291.9c0,.257-.132.366-.348.366h-.471c-.094,0-.118.025-.118.105m-6.972-21.6c0-.217,0-1.96.031-2.522a.627.627,0,0,1,.238-.593,1.8,1.8,0,0,1,.861-.131,4.273,4.273,0,0,1,3,1.26,4.69,4.69,0,0,1,1.07,2.925,5.078,5.078,0,0,1-.962,3.061,3.524,3.524,0,0,1-2.792,1.353c-.509,0-1.021-.106-1.182-.359a1.214,1.214,0,0,1-.238-.754c0-.833-.031-3.112-.031-3.275Zm-1.69-.348v1.018c0,1.017-.053,4.054-.094,4.322-.039.228-.173.333-.442.333h-.779c-.077,0-.108.026-.108.08v.336c0,.094.03.12.08.12.188,0,.724-.04,1.9-.04.674,0,2.041.04,2.551.04.914,0,3.007-.015,4.32-1.435a4.75,4.75,0,0,0,1.317-3.515,4.219,4.219,0,0,0-1.5-3.409c-1.232-1.047-2.68-1.221-4.479-1.221-.674,0-1.343.041-2.015.041-.938,0-1.637-.041-2.024-.041-.068,0-.118.026-.118.083v.36c0,.068.05.093.105.093h.722c.269,0,.459.054.486.377.026.2.079,2.108.079,2.457m-.159,17.185a4.794,4.794,0,0,1,1.206-3.247,2.308,2.308,0,0,1,1.934-.752c1.288,0,3.274,1.665,3.274,4.586,0,1.131-.427,4.134-3.139,4.134-1.127,0-3.275-1.235-3.275-4.721m-.591-2.872a5.345,5.345,0,0,0-1.231,3.329,4.691,4.691,0,0,0,1.957,3.971,6.141,6.141,0,0,0,3.032.885,4.756,4.756,0,0,0,4.025-1.905,4.669,4.669,0,0,0,.991-2.95,4.985,4.985,0,0,0-1.823-3.971,4.738,4.738,0,0,0-3.164-1.075,4.6,4.6,0,0,0-3.788,1.717m-144.926-5.8h9.984v-4.8h-9.984Zm25.175-15.317h4.8v-9.986h-4.8Zm124.527-7.376h-2.791c.091-.309,1.3-3.61,1.356-3.785.041-.119.092-.173.173-.173.054,0,.079.082.136.241.078.268.991,3.328,1.126,3.718m4.214,4.1v-.281c0-.068-.03-.1-.109-.1h-.433a1.013,1.013,0,0,1-.859-.616c-.185-.361-1.043-2.858-1.366-3.9-.242-.86-1.288-3.865-1.528-4.7-.029-.082-.084-.242-.165-.242-.064,0-.119.052-.2.134a4.4,4.4,0,0,1-1.329.67c-.109.027-.135.08-.135.135a.309.309,0,0,0,.079.16c.079.08,0,.323-.026.458-.133.348-1.221,3.246-1.315,3.515-.4,1.126-1.368,3.542-1.5,3.783-.244.415-.484.6-.859.6h-.4c-.053,0-.082.028-.082.109v.257c0,.09,0,.171.082.171.188,0,.482-.041,1.475-.041.942,0,1.5.041,1.692.041.08,0,.106-.051.106-.131v-.336c0-.041-.026-.069-.134-.069H259.6c-.268,0-.482-.145-.482-.319a1.193,1.193,0,0,1,.026-.283c.068-.363.724-2.28.833-2.589h3.112c.162.5.7,2.215.805,2.7.08.365-.023.5-.4.5h-.35c-.083,0-.109.028-.109.109v.268c0,.079.026.16.135.16.294,0,.75-.041,1.879-.041,1.476,0,1.746.041,1.987.041.1,0,.135-.08.135-.16M268.615,256a.832.832,0,0,1,.923-.765,1.1,1.1,0,0,1,.849.414l.644.725a.082.082,0,0,0,.105.054l.256-.122a.179.179,0,0,0,.012-.146l-.175-.913c-.013-.08-.053-.134-.255-.241a2.59,2.59,0,0,0-1.3-.294,2.227,2.227,0,0,0-1.4.44,1.636,1.636,0,0,0-.681,1.41c0,.953.722,1.408,1.633,1.678.941.269,1.291.508,1.291,1.044a.87.87,0,0,1-.952.821,1.212,1.212,0,0,1-1.159-.725l-.44-.752c-.027-.052-.067-.052-.12-.041l-.253.081c-.044.013-.054.053-.044.109l.217,1.353a.3.3,0,0,0,.106.147,2.818,2.818,0,0,0,1.449.35,2.013,2.013,0,0,0,2.243-1.931,1.372,1.372,0,0,0-.4-1.074,2.472,2.472,0,0,0-1.341-.7c-.805-.216-1.207-.377-1.207-.925m4.758,0a.833.833,0,0,1,.925-.765,1.1,1.1,0,0,1,.848.414l.645.725a.082.082,0,0,0,.1.054l.257-.122a.169.169,0,0,0,.01-.146l-.172-.913c-.016-.08-.055-.134-.256-.241a2.59,2.59,0,0,0-1.3-.294,2.241,2.241,0,0,0-1.4.44,1.638,1.638,0,0,0-.68,1.41c0,.953.723,1.408,1.634,1.678.94.269,1.29.508,1.29,1.044a.869.869,0,0,1-.953.821,1.2,1.2,0,0,1-1.155-.725l-.443-.752c-.026-.052-.065-.052-.12-.041l-.254.081c-.042.013-.053.053-.042.109l.215,1.353a.318.318,0,0,0,.106.147,2.822,2.822,0,0,0,1.449.35,2.013,2.013,0,0,0,2.243-1.931,1.384,1.384,0,0,0-.4-1.074,2.468,2.468,0,0,0-1.342-.7c-.8-.216-1.207-.377-1.207-.925m4.471,14.838a2.094,2.094,0,0,0-1.075.32,2.269,2.269,0,0,0-.669.536h-.08l-.109-.7c-.023-.108-.079-.16-.159-.16a.676.676,0,0,0-.268.105l-1.477.7c-.079.026-.135.079-.135.13v.109a.137.137,0,0,0,.108.135l.106.053a.844.844,0,0,1,.565.779v3.017c0,.214-.188.269-.348.269h-.269c-.106,0-.135.026-.135.106v.256c0,.08.028.135.08.135.08,0,.513-.04,1.342-.04.8,0,1.18.04,1.26.04s.11-.055.11-.135v-.239c0-.1-.029-.123-.134-.123h-.243c-.188,0-.255-.162-.255-.457v-2.764a1.365,1.365,0,0,1,.284-.952,1.237,1.237,0,0,1,.856-.349,1.024,1.024,0,0,1,.805.243c.322.268.35.617.35,1.155v1.542a10.721,10.721,0,0,1-.055,1.26c-.026.244-.134.323-.238.323h-.268c-.137,0-.166.026-.166.106v.227c0,.109.028.163.11.163s.508-.04,1.315-.04c.938,0,1.341.04,1.447.04.082,0,.108-.026.108-.094v-.309c0-.068-.041-.094-.161-.094h-.376c-.16,0-.324-.079-.324-.373,0-.268.017-.862.017-1.29v-1.934a1.517,1.517,0,0,0-.74-1.38,1.866,1.866,0,0,0-1.18-.32m3.464-13.256c0,1.368-.454,2.483-1.339,2.483a1.131,1.131,0,0,1-1.062-.579,3.131,3.131,0,0,1-.414-1.863,2.753,2.753,0,0,1,.575-2.013,1.05,1.05,0,0,1,.845-.363c.621,0,1.395.859,1.395,2.334m.806,2.078a3.074,3.074,0,0,0,.83-2.037,2.891,2.891,0,0,0-.923-2.12,2.83,2.83,0,0,0-2.027-.791,2.906,2.906,0,0,0-1.9.642,2.991,2.991,0,0,0-1.13,2.228,2.817,2.817,0,0,0,.727,2.078,2.622,2.622,0,0,0,2.174.967,2.977,2.977,0,0,0,2.254-.967m6.527-.066a.114.114,0,0,0,0-.162l-.164-.188a.083.083,0,0,0-.119-.012,2.2,2.2,0,0,1-1.45.507,1.548,1.548,0,0,1-1.383-.724,3.545,3.545,0,0,1-.522-2.173,1.449,1.449,0,0,1,1.2-1.557.791.791,0,0,1,.835.552.86.86,0,0,0,.805.67.562.562,0,0,0,.589-.59c0-.4-.349-1.206-1.907-1.206a2.81,2.81,0,0,0-1.954.777,3.3,3.3,0,0,0-1,2.4,2.7,2.7,0,0,0,.644,1.849,2.541,2.541,0,0,0,2.151.888,3.271,3.271,0,0,0,2.267-1.033m-.734,15.776c0,.244-.48.62-.857.645-.32,0-.616-.271-.616-.818,0-.982.885-1.21,1.474-1.583Zm1.371-3.152a1.252,1.252,0,0,0-.323-1.007,1.545,1.545,0,0,0-1.232-.374,3.543,3.543,0,0,0-2.174.747,1.438,1.438,0,0,0-.62,1.1.44.44,0,0,0,.459.457.7.7,0,0,0,.8-.777c0-.325-.132-.524.054-.659a1.385,1.385,0,0,1,.778-.242.9.9,0,0,1,.671.2,1.281,1.281,0,0,1,.212.749v.7a13.806,13.806,0,0,1-1.633.829,1.732,1.732,0,0,0-1.235,1.651c0,.751.427,1.156.923,1.156a2.707,2.707,0,0,0,.86-.1,2.55,2.55,0,0,0,1.17-.725h.051a1.107,1.107,0,0,0,1.128.822,1.344,1.344,0,0,0,1.233-.782c.054-.131.029-.186-.024-.211l-.166-.109c-.05-.028-.078-.028-.133.051a.51.51,0,0,1-.427.218c-.243,0-.349-.218-.349-.942v-.641Zm2.085-19.241a.824.824,0,0,0-.885-.779.918.918,0,0,0-.993.832.943.943,0,0,0,1.878-.053m.9,7.528c.082,0,.108-.051.108-.131v-.269c0-.068-.026-.1-.134-.1H291.7c-.136,0-.189-.105-.215-.348a10.972,10.972,0,0,1-.029-1.152v-1.45c0-1.114,0-1.972.029-2.186.012-.109-.029-.161-.109-.161a.927.927,0,0,0-.322.079c-.229.094-1.554.563-1.742.644-.07.026-.1.053-.1.106v.149c0,.053.014.093.136.12.615.161.7.43.7.832v1.89c0,.377,0,.808-.028,1.206,0,.218-.08.269-.213.269h-.593c-.079,0-.134.029-.134.109v.257c0,.105.042.131.108.131.162,0,.672-.041,1.449-.041.9,0,1.517.041,1.623.041m.974,6.384a1.233,1.233,0,0,0-.3.084,11.37,11.37,0,0,1-2.014.778c-.077.026-.106.079-.106.109v.16c0,.052,0,.079.084.109l.268.079a.819.819,0,0,1,.685.8c.024.348.051,1.5.051,2.442v4.2c0,.377-.2.482-.334.482h-.511c-.159,0-.189.026-.189.106v.256c0,.08.031.135.109.135.106,0,.645-.04,1.663-.04.941,0,1.53.04,1.638.04.053,0,.081-.055.081-.135v-.239c0-.1-.028-.123-.16-.123h-.511c-.3,0-.322-.188-.349-.431-.027-.4-.027-1.768-.027-2.384v-1.935c0-.735.027-3.525.054-4.25,0-.188-.054-.246-.136-.246m2.723-7.645c0,.242-.482.619-.858.645-.321,0-.617-.268-.617-.817,0-.981.884-1.21,1.476-1.585Zm2.174.336a.51.51,0,0,1-.428.216c-.242,0-.349-.216-.349-.941v-.643l-.028-2.12a1.258,1.258,0,0,0-.323-1.006,1.543,1.543,0,0,0-1.232-.375,3.528,3.528,0,0,0-2.174.75,1.422,1.422,0,0,0-.62,1.1.438.438,0,0,0,.456.457.7.7,0,0,0,.805-.778c0-.323-.135-.524.054-.658a1.39,1.39,0,0,1,.779-.241.894.894,0,0,1,.669.2,1.309,1.309,0,0,1,.215.752v.7a13.933,13.933,0,0,1-1.635.831,1.732,1.732,0,0,0-1.236,1.649c0,.753.427,1.155.926,1.155a2.763,2.763,0,0,0,.856-.095,2.59,2.59,0,0,0,1.17-.724h.051a1.113,1.113,0,0,0,1.13.819,1.347,1.347,0,0,0,1.233-.779c.054-.134.026-.188-.027-.213l-.161-.106c-.053-.028-.08-.028-.135.052m4.207-4.051.134-.565a.085.085,0,0,0-.094-.106H300.6l.057-1.327c0-.108-.057-.188-.162-.188a.224.224,0,0,0-.217.134,5.7,5.7,0,0,1-1.838,1.691c-.174.068-.256.147-.256.254a.171.171,0,0,0,.189.189h.779v1.744c0,.509-.038,1.582-.038,2.066a1.372,1.372,0,0,0,1.407,1.207,2.791,2.791,0,0,0,1.69-.536.17.17,0,0,0,.054-.189l-.08-.163c-.029-.064-.07-.064-.163-.025a1.852,1.852,0,0,1-.775.162c-.269,0-.714-.217-.714-1.261v-1.21c0-.59.013-1.234.042-1.8H302.2c.085,0,.126-.027.14-.08m.419,11.645a.234.234,0,0,1-.281.039,4.2,4.2,0,0,0-1.691-.325,2.739,2.739,0,0,0-1.9.645,2.275,2.275,0,0,0-.939,1.88,2.564,2.564,0,0,0,.67,1.921,6.4,6.4,0,0,0,1.959,1.122c1.423.537,1.986.941,1.986,2.175a1.641,1.641,0,0,1-1.743,1.569,2.085,2.085,0,0,1-1.774-.964,3.125,3.125,0,0,1-.507-1.529c0-.08-.029-.108-.083-.108l-.294-.026c-.054,0-.068.026-.078.105-.029.162-.219,2.336-.243,2.5,0,.134.054.214.16.214s.162-.027.24-.161.137-.239.216-.239.161.051.321.16a3.525,3.525,0,0,0,2.283.645,2.8,2.8,0,0,0,2.843-2.979,2.58,2.58,0,0,0-.669-1.919,4.225,4.225,0,0,0-1.934-1.048,4.417,4.417,0,0,1-1.635-.834,1.62,1.62,0,0,1-.377-1.205,1.43,1.43,0,0,1,1.5-1.356,1.76,1.76,0,0,1,1.4.565,3.8,3.8,0,0,1,.829,1.42c.031.079.084.094.135.079l.219-.064a.091.091,0,0,0,.078-.1c0-.134-.214-2.012-.214-2.225,0-.137-.03-.217-.108-.217a.253.253,0,0,0-.187.08Zm2.24-14.2a.822.822,0,0,0-.883-.779.916.916,0,0,0-.993.832A.942.942,0,0,0,305,252.98m.9,7.528c.081,0,.108-.051.108-.131v-.269c0-.068-.027-.1-.135-.1h-.537c-.134,0-.188-.105-.213-.348a10.579,10.579,0,0,1-.031-1.152v-1.45c0-1.114,0-1.972.031-2.186.012-.109-.031-.161-.109-.161a.923.923,0,0,0-.322.079c-.23.094-1.555.563-1.744.644-.07.026-.094.053-.094.106v.149c0,.053.014.093.134.12.619.161.7.43.7.832v1.89c0,.377,0,.808-.028,1.206,0,.218-.082.269-.216.269h-.589c-.08,0-.135.029-.135.109v.257c0,.105.041.131.109.131.16,0,.672-.041,1.449-.041.9,0,1.514.041,1.623.041m.3,10.438a.821.821,0,0,0-.147.026.807.807,0,0,1-.2.028H304.24c-.131,0-.161.026-.161.109v.239c0,.08.08.08.3.109a.487.487,0,0,1,.468.483,8.966,8.966,0,0,1,.029.967c0,.28-.015.736-.015,1.381a2.613,2.613,0,0,0,.5,1.877,1.457,1.457,0,0,0,1.379.593,2.267,2.267,0,0,0,1.773-.913h.079l.082.751a.171.171,0,0,0,.187.162.751.751,0,0,0,.271-.058l1.663-.468c.053-.01.082-.039.066-.119l-.039-.218c-.015-.051-.054-.066-.161-.051a2.99,2.99,0,0,1-.431.025c-.105,0-.239-.054-.293-.456-.028-.267-.028-.91-.028-1.554v-.967a15.27,15.27,0,0,1,.083-1.811c0-.054-.029-.135-.108-.135a1.031,1.031,0,0,0-.175.026,1.078,1.078,0,0,1-.229.028H307.81c-.123,0-.162.012-.162.109v.239c0,.055.028.08.266.109.324.026.575.109.575.457v3.152a.918.918,0,0,1-.144.431,1.293,1.293,0,0,1-.938.508.829.829,0,0,1-.859-.376,3.936,3.936,0,0,1-.271-2.011v-.83c0-.928.053-1.547.053-1.678a.151.151,0,0,0-.134-.163m4.2-13.361c0,1.368-.456,2.483-1.341,2.483a1.128,1.128,0,0,1-1.06-.579,3.118,3.118,0,0,1-.416-1.863,2.763,2.763,0,0,1,.577-2.013,1.052,1.052,0,0,1,.844-.363c.618,0,1.4.859,1.4,2.334m.808,2.078a3.082,3.082,0,0,0,.831-2.037,2.9,2.9,0,0,0-.926-2.12,2.832,2.832,0,0,0-2.027-.791,2.9,2.9,0,0,0-1.9.642,2.991,2.991,0,0,0-1.127,2.228,2.82,2.82,0,0,0,.722,2.078,2.623,2.623,0,0,0,2.173.967,2.988,2.988,0,0,0,2.257-.967m1.77,12.545a1.454,1.454,0,0,1,1.155-.591c1.139,0,1.568,1.421,1.568,2.671-.027,1.409-.683,1.945-1.329,1.945a1.628,1.628,0,0,1-1.046-.307.816.816,0,0,1-.348-.753Zm-.243-1.367a1.045,1.045,0,0,0-.375.105l-1.528.67c-.083.029-.108.055-.108.109v.134c0,.054.025.08.108.135l.294.159a.731.731,0,0,1,.457.805v4.631c0,1.018,0,1.555-.027,1.851-.027.218-.108.349-.3.349h-.483c-.054,0-.08.039-.08.1v.291c0,.083.026.11.1.11.11,0,.594-.041,1.481-.041,1.043,0,1.444.041,1.553.041s.135-.027.135-.11V279.9c0-.069-.026-.109-.109-.109h-.48c-.27,0-.364-.052-.377-.83l-.026-2.442a3.043,3.043,0,0,0,1.18.242,3.075,3.075,0,0,0,2.924-3.329,2.453,2.453,0,0,0-.724-1.921,2.085,2.085,0,0,0-1.554-.667,2.438,2.438,0,0,0-1.826.831h-.025l-.095-.659c-.014-.092-.054-.172-.124-.172m6.437-10.333c.08,0,.108-.026.108-.092v-.308c0-.068-.042-.1-.161-.1h-.376c-.162,0-.324-.079-.324-.373,0-.269.016-.858.016-1.288v-1.934a1.517,1.517,0,0,0-.741-1.382,1.857,1.857,0,0,0-1.18-.32,2.105,2.105,0,0,0-1.073.32,2.29,2.29,0,0,0-.67.537h-.079l-.109-.7c-.026-.109-.079-.161-.16-.161a.67.67,0,0,0-.27.106l-1.476.7c-.08.026-.136.082-.136.134v.106a.139.139,0,0,0,.109.135l.108.053a.843.843,0,0,1,.565.779v3.016c0,.218-.188.269-.35.269H312.7c-.109,0-.135.029-.135.109v.257c0,.08.026.131.079.131.079,0,.51-.041,1.341-.041.805,0,1.182.041,1.262.041s.109-.051.109-.131v-.244c0-.093-.029-.122-.135-.122h-.242c-.188,0-.255-.16-.255-.457v-2.76a1.364,1.364,0,0,1,.283-.954,1.227,1.227,0,0,1,.859-.349,1.026,1.026,0,0,1,.805.243c.322.268.348.615.348,1.153v1.544a10.815,10.815,0,0,1-.054,1.262c-.026.239-.135.319-.238.319h-.269c-.137,0-.163.029-.163.109v.229c0,.109.026.16.108.16s.51-.041,1.316-.041c.939,0,1.34.041,1.449.041m3.135,13.779c-.029,1.409-.684,1.945-1.329,1.945a1.631,1.631,0,0,1-1.048-.307.822.822,0,0,1-.349-.753v-2.964a1.46,1.46,0,0,1,1.156-.591c1.137,0,1.569,1.421,1.569,2.671m.657-2.78a2.1,2.1,0,0,0-1.555-.667,2.442,2.442,0,0,0-1.827.831h-.026l-.094-.659c-.013-.092-.053-.172-.123-.172a1.04,1.04,0,0,0-.374.105l-1.527.67c-.085.029-.109.055-.109.109v.134c0,.054.024.08.109.135l.292.159a.73.73,0,0,1,.458.805v4.631c0,1.018,0,1.555-.028,1.851-.025.218-.105.349-.293.349h-.484c-.053,0-.079.039-.079.1v.291c0,.083.026.11.105.11.109,0,.591-.041,1.478-.041,1.044,0,1.445.041,1.555.041s.133-.027.133-.11V279.9c0-.069-.024-.109-.109-.109h-.482c-.268,0-.363-.052-.376-.83l-.026-2.442a3.038,3.038,0,0,0,1.18.242,3.074,3.074,0,0,0,2.924-3.329,2.459,2.459,0,0,0-.722-1.921m3.132-15.319a6.6,6.6,0,0,1-.912,2.443c-.524.872-1.007,1.248-1.529,1.248a.6.6,0,0,1-.565-.632,4.629,4.629,0,0,1,.711-2.092c.657-1.1,1.169-1.57,1.716-1.57a.569.569,0,0,1,.579.6m-.32,3.529a5.124,5.124,0,0,0,1.152-3.14,1.592,1.592,0,0,0-1.664-1.69,2.481,2.481,0,0,0-1.906.859,4.424,4.424,0,0,0-1.127,3.019,1.665,1.665,0,0,0,1.613,1.841,2.413,2.413,0,0,0,1.932-.888m8.049-7.554c0-.4-.428-.884-1.423-.884a3,3,0,0,0-2.04.939,7.788,7.788,0,0,0-1.53,2.965H327.7c-.108,0-.131.055-.16.134l-.066.323c-.016.079.014.134.094.134h1.154l-1.211,4.534c-.64,2.455-1.287,3.584-1.905,3.584a.247.247,0,0,1-.268-.217.683.683,0,0,0-.671-.7.614.614,0,0,0-.615.644c0,.482.427.834,1.127.834,1.568,0,2.643-1.746,3.382-3.773.563-1.556,1.152-3.865,1.448-4.91h1.341c.108,0,.135-.027.147-.106l.068-.35c.028-.079,0-.134-.08-.134H330.12c.4-1.436.829-3.382,1.877-3.382a.464.464,0,0,1,.482.389.639.639,0,0,0,.725.616.63.63,0,0,0,.617-.644m1.47,19.265a.653.653,0,0,0-.694-.671,2.086,2.086,0,0,0-1.613,1.208h-.051l-.122-.965c-.012-.079-.039-.16-.12-.16a.65.65,0,0,0-.214.052l-1.623.763c-.082.041-.108.069-.108.12v.083c0,.054.026.08.108.106l.24.136c.4.212.51.428.51,1.046v2.629c0,.258-.134.363-.346.363h-.473c-.092,0-.12.026-.12.106v.3c0,.068.028.094.094.094.106,0,.633-.04,1.571-.04.977,0,1.57.04,1.664.04.065,0,.093-.026.093-.094v-.309c0-.068-.027-.094-.109-.094h-.587c-.272,0-.377-.134-.377-.562v-2.591a1.529,1.529,0,0,1,.16-.656.7.7,0,0,1,.565-.39.611.611,0,0,1,.373.105,1.023,1.023,0,0,0,.458.108.776.776,0,0,0,.722-.724m4.545-.443h-1.772l.053-1.325c0-.109-.053-.189-.162-.189a.223.223,0,0,0-.215.131A5.7,5.7,0,0,1,335.9,271.3c-.176.065-.255.146-.255.252a.168.168,0,0,0,.188.188h.778v1.745c0,.509-.042,1.584-.042,2.066a1.375,1.375,0,0,0,1.41,1.21,2.818,2.818,0,0,0,1.689-.536.169.169,0,0,0,.054-.188l-.078-.164c-.029-.064-.071-.064-.166-.025a1.894,1.894,0,0,1-.773.16c-.269,0-.716-.214-.716-1.261v-1.21c0-.588.017-1.233.041-1.8h1.624c.084,0,.121-.026.137-.08l.134-.564a.083.083,0,0,0-.093-.106" transform="translate(-28.068 -142.278)"/><path class="b" d="M153.6,264.585c0-14.761-11.289-21.936-24.866-21.936h-9.175v5.056h7.469c11.288,0,21.048,4.173,21.048,17.111,0,12.877-9.76,17.111-21.048,17.111h-1.947v-.008h-1.867l-18.843-41.146-21.169,46.21h5.933l15.236-34.1,15.188,34.007v.091h8.992c14,0,25.048-7.285,25.048-22.4m8.895-11.408c0-3.883,3.881-6.3,7.412-6.3a7.605,7.605,0,0,1,7.114,4.178l4.405-2.645a12.653,12.653,0,0,0-11.406-6.7c-6.7,0-13.049,4.291-13.049,11.466,0,6.17,4.588,9.055,9.642,11.228l3.054,1.292c3.823,1.588,7.64,3.649,7.64,8.41,0,4.645-3.407,8.644-8.165,8.644a8.3,8.3,0,0,1-8.59-8.407l-5.582,1.173c.937,7.116,6.521,12.409,13.7,12.409,7.939,0,14.171-5.761,14.171-13.82,0-7.406-4.712-10.877-11-13.345l-3.169-1.236c-2.768-1.058-6.177-2.878-6.177-6.35m63.785,11.639a17.7,17.7,0,1,1-35.393,0c0-9.757,7.287-17.936,17.693-17.936s17.7,8.179,17.7,17.936m5.533,0a23.225,23.225,0,0,0-46.449,0,23.225,23.225,0,0,0,46.449,0" transform="translate(-9.205 -136.163)"/><path class="b" d="M476.82,248.544h.459c.536,0,.968-.178.968-.612,0-.382-.28-.637-.891-.637a2.289,2.289,0,0,0-.536.051Zm-.025,2.345h-.97v-4.179a11.348,11.348,0,0,1,1.606-.127,2.225,2.225,0,0,1,1.427.331,1.056,1.056,0,0,1,.433.893,1.078,1.078,0,0,1-.865.993v.051c.408.128.61.459.737,1.019a3.771,3.771,0,0,0,.306,1.019H478.45a3.331,3.331,0,0,1-.331-1.019c-.076-.434-.331-.638-.865-.638h-.459Zm.636-5.5a3.34,3.34,0,0,0,.051,6.676,3.2,3.2,0,0,0,3.185-3.313,3.249,3.249,0,0,0-3.211-3.363Zm.051-.842a4.192,4.192,0,1,1-.026,8.383,4.193,4.193,0,1,1,0-8.383Z" transform="translate(-254.012 -138.53)"/></g></svg>