<?xml version="1.0" encoding="utf-8"?>
<!-- Generator: Adobe Illustrator 23.0.2, SVG Export Plug-In . SVG Version: 6.00 Build 0)  -->
<svg version="1.1" id="Layer_1" xmlns="http://www.w3.org/2000/svg" xmlns:xlink="http://www.w3.org/1999/xlink" x="0px" y="0px"
	 viewBox="0 0 110.6 110.6" style="enable-background:new 0 0 110.6 110.6;" xml:space="preserve">
<style type="text/css">
	.st0{enable-background:new    ;}
	.st1{fill:#FFFFFF;}
	.st2{fill-rule:evenodd;clip-rule:evenodd;fill:#FFFFFF;}
</style>
<g class="st0">
	<path class="st1" d="M33.5,99.6h-5.6V91h5.6v1.4h-3.9v2.2h3.6v1.3h-3.6v2.3h3.9V99.6z"/>
	<path class="st1" d="M39.2,93.9L39.2,93.9l0.1-3.4H41v9.1h-1.6v-1h-0.1c-0.3,0.7-1,1.1-1.9,1.1c-1.6,0-2.6-1.2-2.6-3.2V96
		c0-1.9,1-3.2,2.6-3.2C38.2,92.8,38.9,93.2,39.2,93.9z M36.4,96v0.5c0,1.3,0.6,1.9,1.4,1.9c0.9,0,1.4-0.7,1.4-1.9V96
		c0-1.2-0.6-1.9-1.5-1.9C37,94.1,36.4,94.8,36.4,96z"/>
	<path class="st1" d="M48.5,99.6h-1.6v-1h-0.1c-0.2,0.5-0.8,1.1-1.9,1.1c-1.4,0-2.3-0.8-2.3-2.4v-4.4h1.7v4c0,1.1,0.6,1.4,1.3,1.4
		c0.7,0,1.3-0.5,1.3-1.4v-4h1.7V99.6z"/>
	<path class="st1" d="M49.9,95.9c0-1.9,1.1-3.2,3-3.2c1.7,0,2.7,1.1,2.8,2.4h-1.5c-0.1-0.6-0.5-1-1.2-1c-0.9,0-1.4,0.7-1.4,1.9v0.5
		c0,1.2,0.5,1.9,1.4,1.9c0.7,0,1.1-0.5,1.2-1h1.5c-0.1,1.5-1.2,2.3-2.8,2.3c-1.9,0-3-1.3-3-3.2V95.9z"/>
	<path class="st1" d="M58.8,99.7c-1.3,0-2.2-0.8-2.2-2c0-1.2,0.8-2,2.4-2h1.6v-0.6c0-0.7-0.4-1-1.1-1c-0.7,0-1.1,0.4-1.1,0.9h-1.6
		c0.1-1.1,0.8-2.2,2.7-2.2c1.5,0,2.7,0.7,2.7,2.3v4.6h-1.6v-0.8h-0.1C60.4,99.3,59.8,99.7,58.8,99.7z M60.7,97.4v-0.7h-1.3
		c-0.7,0-1.1,0.4-1.1,0.9c0,0.6,0.5,0.9,1.1,0.9C60.1,98.5,60.7,98.1,60.7,97.4z"/>
	<path class="st1" d="M64.4,91.3H66v1.6h1.3v1.3H66v3.3c0,0.7,0.3,0.9,1,0.9c0.1,0,0.3,0,0.4,0v1.2c-0.1,0-0.4,0.1-0.8,0.1
		c-1.7,0-2.2-0.6-2.2-1.9v-3.5h-1v-1.3h1V91.3z"/>
	<path class="st1" d="M69.7,90.3c0.5,0,0.9,0.4,0.9,0.9s-0.4,0.9-0.9,0.9c-0.5,0-0.9-0.4-0.9-0.9S69.2,90.3,69.7,90.3z M68.8,92.9
		h1.7v6.7h-1.7V92.9z"/>
	<path class="st1" d="M78.1,96v0.5c0,2-1.1,3.3-3.1,3.3c-2,0-3.1-1.3-3.1-3.3V96c0-1.9,1.1-3.2,3.1-3.2C77,92.8,78.1,94.1,78.1,96z
		 M73.7,96v0.5c0,1.1,0.4,1.9,1.4,1.9c1,0,1.4-0.9,1.4-1.9V96c0-1.1-0.4-1.9-1.4-1.9S73.7,94.9,73.7,96z"/>
	<path class="st1" d="M79.5,92.9h1.6v1h0.1c0.2-0.5,0.8-1.1,2-1.1c1.4,0,2.3,0.9,2.3,2.5v4.3h-1.7v-4c0-1-0.6-1.4-1.3-1.4
		c-0.9,0-1.3,0.6-1.3,1.5v3.9h-1.7V92.9z"/>
</g>
<g id="Group_4" transform="translate(424.23 407.624)">
	<path id="education_icon" class="st2" d="M-348.1-347.2c0.4,3.2,2,5.9,4.5,8.4c0.2,0.1,0.2,0.4,0,0.6c0,0-0.1,0.1-0.1,0.1l-2.8,1.5
		c-0.3,0.2-0.8,0.2-1.1,0c-3.2-1.3-4.1-5.9-2.6-10.9c-1.1-0.8-1.4-2.3-0.6-3.4c0.2-0.3,0.4-0.5,0.7-0.7c0.1-2.1-0.8-4.2-2.2-5.7
		c-3.8-2.6-10-4.2-14.5-6c-1.5-0.7-2.4,1.2-1.1,1.9l12.8,5l-11.5,3.9c-0.6,0.2-1.3,0.2-1.8,0l-21.7-7.2c-0.5-0.3-0.7-1-0.3-1.6
		c0.1-0.1,0.2-0.2,0.3-0.3l21.9-7.4c0.4-0.2,0.9-0.2,1.4,0l21.8,7.1c0.9,0.3,1.1,1.8,0.4,2l-5.1,1.7c1.2,1.9,1.8,4.1,1.7,6.3
		c1.3,0.4,2,1.8,1.5,3.1C-346.8-348-347.4-347.4-348.1-347.2 M-352.9-354.6v2.8c-1.6,1-2.1,3.1-1.1,4.7c0.2,0.3,0.4,0.5,0.6,0.7
		c-4.2,5.6-24.7,6.1-29-1v-7.4l14,4.6c0.6,0.2,1.3,0.2,1.8,0L-352.9-354.6z"/>
</g>
</svg>
