<?xml version="1.0" encoding="utf-8"?>
<!-- Generator: Adobe Illustrator 23.0.2, SVG Export Plug-In . SVG Version: 6.00 Build 0)  -->
<svg version="1.1" id="Layer_1" xmlns="http://www.w3.org/2000/svg" xmlns:xlink="http://www.w3.org/1999/xlink" x="0px" y="0px"
	 viewBox="0 0 110.6 110.6" style="enable-background:new 0 0 110.6 110.6;" xml:space="preserve">
<style type="text/css">
	.st0{enable-background:new    ;}
	.st1{fill:#FFFFFF;}
	.st2{fill-rule:evenodd;clip-rule:evenodd;fill:#FFFFFF;}
</style>
<g class="st0">
	<path class="st1" d="M19,97.9v-8.7h1.7l2.5,5.6h0.1l2.5-5.6h1.7v8.7H26v-5.7h-0.1l-2.1,4.6h-1.1l-2.1-4.6h-0.1v5.7H19z"/>
	<path class="st1" d="M29,94.8v-0.6c0-2,1.2-3.1,3-3.1c1.8,0,3,1.2,3,3.2v0.7h-4.3V95c0,1,0.6,1.7,1.4,1.7c0.7,0,1.1-0.3,1.3-0.9
		h1.5c-0.2,1.1-1,2.2-2.8,2.2C30.2,98,29,96.8,29,94.8z M33.3,93.8L33.3,93.8c0-0.9-0.5-1.5-1.3-1.5c-0.8,0-1.4,0.7-1.4,1.5v0H33.3z
		"/>
	<path class="st1" d="M36.3,91.1h1.6v1H38c0.2-0.5,0.8-1.1,1.8-1.1c1,0,1.7,0.5,1.9,1.2h0.1c0.2-0.6,0.9-1.2,2.1-1.2
		c1.4,0,2.2,0.9,2.2,2.2v4.6h-1.7v-4.1c0-0.9-0.5-1.3-1.2-1.3c-0.7,0-1.2,0.5-1.2,1.4v4.1h-1.6v-4.1c0-1-0.5-1.4-1.2-1.4
		c-0.7,0-1.2,0.4-1.2,1.4v4.1h-1.7V91.1z"/>
	<path class="st1" d="M49.4,96.8L49.4,96.8l-0.1,1h-1.7v-9.1h1.7v3.4h0.1c0.3-0.6,1-1.1,1.9-1.1c1.5,0,2.6,1.1,2.6,3.2v0.6
		c0,2-1,3.2-2.6,3.2C50.4,98,49.7,97.5,49.4,96.8z M52.2,94.7v-0.5c0-1.2-0.6-1.9-1.4-1.9c-0.9,0-1.5,0.6-1.5,1.9v0.5
		c0,1.2,0.6,1.9,1.5,1.9C51.6,96.6,52.2,96,52.2,94.7z"/>
	<path class="st1" d="M55,94.8v-0.6c0-2,1.2-3.1,3-3.1c1.8,0,3,1.2,3,3.2v0.7h-4.3V95c0,1,0.6,1.7,1.4,1.7c0.7,0,1.1-0.3,1.3-0.9
		h1.5c-0.2,1.1-1,2.2-2.8,2.2C56.2,98,55,96.8,55,94.8z M59.3,93.8L59.3,93.8c0-0.9-0.5-1.5-1.3-1.5c-0.8,0-1.4,0.7-1.4,1.5v0H59.3z
		"/>
	<path class="st1" d="M62.3,91.1H64v0.9h0.1c0.2-0.4,0.7-1,1.6-1c0.2,0,0.4,0,0.5,0v1.4c-0.1,0-0.4-0.1-0.7-0.1
		c-1.1,0-1.5,0.7-1.5,1.6v3.8h-1.7V91.1z"/>
	<path class="st1" d="M69.7,91c1.6,0,2.6,0.8,2.6,2.1h-1.5c0-0.4-0.3-0.9-1.1-0.9c-0.7,0-1.1,0.3-1.1,0.8c0,0.7,1,0.8,1.7,0.9
		c1.2,0.2,2.1,0.6,2.1,1.9c0,1.4-1.1,2.2-2.9,2.2c-1.7,0-2.7-0.8-2.7-2h1.6c0.1,0.5,0.5,0.8,1.2,0.8c0.8,0,1.2-0.4,1.2-0.8
		c0-0.7-0.8-0.7-1.7-0.9C68,94.8,67,94.4,67,93.1C67,91.6,68.3,91,69.7,91z"/>
	<path class="st1" d="M73.8,88.7h1.7v3.4h0.1c0.2-0.5,0.8-1.1,1.9-1.1c1.4,0,2.3,0.9,2.3,2.5v4.3h-1.7v-4c0-1-0.6-1.4-1.3-1.4
		c-0.9,0-1.3,0.6-1.3,1.5v3.9h-1.7V88.7z"/>
	<path class="st1" d="M82.3,88.6c0.5,0,0.9,0.4,0.9,0.9s-0.4,0.9-0.9,0.9c-0.5,0-0.9-0.4-0.9-0.9S81.7,88.6,82.3,88.6z M81.4,91.1
		h1.7v6.7h-1.7V91.1z"/>
	<path class="st1" d="M86.6,96.9L86.6,96.9l-0.1,3.2h-1.7v-9h1.6v1h0.1c0.3-0.7,1-1.1,1.9-1.1c1.5,0,2.5,1.1,2.5,3.2v0.6
		c0,2-1,3.2-2.6,3.2C87.6,98,86.9,97.5,86.6,96.9z M89.3,94.7v-0.4c0-1.2-0.5-1.9-1.4-1.9c-0.9,0-1.4,0.7-1.4,1.9v0.5
		c0,1.2,0.6,1.9,1.5,1.9C88.8,96.6,89.3,96,89.3,94.7z"/>
</g>
<path id="Path_16" class="st2" d="M55.2,55.9l3.3-3.6c0.1-0.1,0.2-0.3,0.4-0.2c2.2,0.9,7.7,5.1,6.9,13.4c-2.2,3-6.3,5-11,5
	c-4.1,0.1-8.1-1.7-10.8-4.8c-0.9-6.5,3.1-11.9,6.8-13.6c0.2-0.1,0.3,0,0.4,0.1l3.3,3.8c0.1,0.2,0.4,0.2,0.6,0.1
	C55.1,56,55.2,56,55.2,55.9 M54.8,38.7c3.4,0,6.2,2.8,6.2,6.2c0,3.4-2.8,6.2-6.2,6.2c-3.4,0-6.2-2.8-6.2-6.2c0,0,0,0,0,0
	C48.6,41.5,51.4,38.7,54.8,38.7z M43.6,50.9l3.1-3.4c0.1-0.1,0.2-0.2,0.4-0.2l0.1,0c0.4,1.2,1.1,2.3,2,3.2c0.1,0.1,0.1,0.1,0.2,0.2
	c-2.4,1.5-4.4,3.6-5.6,6.2c-1.2,2.3-1.7,4.9-1.6,7.5c-3.5-0.2-6.7-1.8-8.9-4.4c-0.9-6,2.9-11.1,6.3-12.7c0.1-0.1,0.2,0,0.4,0.1
	l3,3.5c0.1,0.2,0.4,0.2,0.6,0.1C43.5,51,43.6,50.9,43.6,50.9z M43.2,34.8c2.7,0,5.1,1.9,5.7,4.6c-1.4,1.5-2.1,3.4-2.1,5.5
	c0,0.1,0,0.2,0,0.3c-2.5,2-6.2,1.5-8.1-1s-1.5-6.2,1-8.1C40.7,35.3,41.9,34.8,43.2,34.8z M66.3,50.9l3.1-3.4
	c0.1-0.1,0.2-0.2,0.4-0.2c2,0.8,7.2,4.7,6.4,12.5c-2.1,2.6-5.1,4.2-8.5,4.5c0.1-2.6-0.5-5.3-1.7-7.6c-1.3-2.5-3.3-4.6-5.7-6
	c0.1,0,0.1-0.1,0.2-0.2c0.9-0.9,1.6-2.1,2-3.3c0,0,0.1,0,0.1,0.1l3,3.5c0.1,0.2,0.4,0.2,0.6,0.1C66.3,51,66.3,50.9,66.3,50.9z
	 M65.9,34.8c3.2,0,5.8,2.6,5.8,5.8c0,3.2-2.6,5.8-5.8,5.8c-1.1,0-2.2-0.3-3.1-0.9c0-0.2,0-0.4,0-0.6c0-2.1-0.8-4.2-2.4-5.7
	c0,0-0.1-0.1-0.1-0.1C61.1,36.6,63.3,34.8,65.9,34.8z"/>
</svg>
