<?xml version="1.0" encoding="utf-8"?>
<!-- Generator: Adobe Illustrator 23.0.2, SVG Export Plug-In . SVG Version: 6.00 Build 0)  -->
<svg version="1.1" id="Layer_1" xmlns="http://www.w3.org/2000/svg" xmlns:xlink="http://www.w3.org/1999/xlink" x="0px" y="0px"
	 viewBox="0 0 110.6 110.6" style="enable-background:new 0 0 110.6 110.6;" xml:space="preserve">
<style type="text/css">
	.st0{enable-background:new    ;}
	.st1{fill:#FFFFFF;}
	.st2{fill-rule:evenodd;clip-rule:evenodd;fill:#FFFFFF;}
</style>
<g class="st0">
	<path class="st1" d="M30.1,98v-3.7h-3.6V98h-1.7v-8.7h1.7v3.5h3.6v-3.5h1.7V98H30.1z"/>
	<path class="st1" d="M34.5,88.7c0.5,0,0.9,0.4,0.9,0.9s-0.4,0.9-0.9,0.9c-0.5,0-0.9-0.4-0.9-0.9S34,88.7,34.5,88.7z M33.6,91.3h1.7
		V98h-1.7V91.3z"/>
	<path class="st1" d="M41.3,97.8v-1h-0.1c-0.3,0.6-1,1.1-1.9,1.1c-1.5,0-2.6-1.1-2.6-3.2v-0.4c0-2,1-3.1,2.6-3.1
		c0.9,0,1.6,0.5,1.9,1.1h0.1v-1H43v6.7c0,1.8-1.6,2.5-3.1,2.5c-1.9,0-2.8-0.9-2.9-2h1.6c0.1,0.5,0.6,0.8,1.3,0.8
		C40.8,99.2,41.3,98.7,41.3,97.8z M38.5,94.4v0.4c0,1.2,0.5,1.9,1.4,1.9c0.9,0,1.4-0.7,1.4-1.9v-0.4c0-1.2-0.6-1.9-1.4-1.9
		C39,92.5,38.5,93.2,38.5,94.4z"/>
	<path class="st1" d="M44.7,88.9h1.7v3.4h0.1c0.2-0.5,0.8-1.1,1.9-1.1c1.4,0,2.3,0.9,2.3,2.5V98H49v-4c0-1-0.6-1.4-1.3-1.4
		c-0.9,0-1.3,0.6-1.3,1.5V98h-1.7V88.9z"/>
	<path class="st1" d="M52.3,88.9H54V98h-1.7V88.9z"/>
	<path class="st1" d="M56.6,88.7c0.5,0,0.9,0.4,0.9,0.9s-0.4,0.9-0.9,0.9c-0.5,0-0.9-0.4-0.9-0.9S56.1,88.7,56.6,88.7z M55.7,91.3
		h1.7V98h-1.7V91.3z"/>
	<path class="st1" d="M63.4,97.8v-1h-0.1c-0.3,0.6-1,1.1-1.9,1.1c-1.5,0-2.6-1.1-2.6-3.2v-0.4c0-2,1-3.1,2.6-3.1
		c0.9,0,1.6,0.5,1.9,1.1h0.1v-1h1.7v6.7c0,1.8-1.6,2.5-3.1,2.5c-1.9,0-2.8-0.9-2.9-2h1.6c0.1,0.5,0.6,0.8,1.3,0.8
		C62.9,99.2,63.4,98.7,63.4,97.8z M60.6,94.4v0.4c0,1.2,0.5,1.9,1.4,1.9c0.9,0,1.4-0.7,1.4-1.9v-0.4c0-1.2-0.6-1.9-1.4-1.9
		C61.1,92.5,60.6,93.2,60.6,94.4z"/>
	<path class="st1" d="M66.8,88.9h1.7v3.4h0.1c0.2-0.5,0.8-1.1,1.9-1.1c1.4,0,2.3,0.9,2.3,2.5V98h-1.7v-4c0-1-0.6-1.4-1.3-1.4
		c-0.9,0-1.3,0.6-1.3,1.5V98h-1.7V88.9z"/>
	<path class="st1" d="M74.8,89.6h1.6v1.6h1.3v1.3h-1.3v3.3c0,0.7,0.3,0.9,1,0.9c0.1,0,0.3,0,0.4,0V98C77.7,98,77.4,98,77,98
		c-1.7,0-2.2-0.6-2.2-1.9v-3.5h-1v-1.3h1V89.6z"/>
	<path class="st1" d="M81.6,91.1c1.6,0,2.6,0.8,2.6,2.1h-1.5c0-0.4-0.3-0.9-1.1-0.9c-0.7,0-1.1,0.3-1.1,0.8c0,0.7,1,0.8,1.7,0.9
		c1.2,0.2,2.1,0.6,2.1,1.9c0,1.4-1.1,2.2-2.9,2.2c-1.7,0-2.7-0.8-2.7-2h1.6c0.1,0.5,0.5,0.8,1.2,0.8c0.8,0,1.2-0.4,1.2-0.8
		c0-0.7-0.8-0.7-1.7-0.9c-1.2-0.3-2.2-0.7-2.2-1.9C78.9,91.8,80.2,91.1,81.6,91.1z"/>
</g>
<path id="highlights_icon" class="st2" d="M68.8,34.4c1.9,3.1,1.1,8.6-0.8,11.1c-0.9,1.2-2.2,2.1-2.9,1.7c-1.1-0.8-0.2-2.8,0.8-5.1
	c0.3-0.7,0.1-1.1-0.7-1.4c-0.9-0.8-4.3-2.3-5.1-3.7c-0.1-0.2-0.2-0.4-0.3-0.6c-0.3-0.7-0.7-1.5-1.2-2.1c-0.5-0.7-1-1.3-1.5-1.9
	L56.9,32c1.5-0.8,3.2-1.2,4.9-1.2c0.2,2.5,2.3,4.4,4.9,4.3C67.4,35,68.2,34.7,68.8,34.4 M69.9,28.2c1,1.8,0.4,4-1.4,5
	c-1.7,1-4,0.5-5-1.3c-1-1.8-0.4-4,1.4-5C66.6,25.9,68.9,26.5,69.9,28.2L69.9,28.2z M74.7,52.4c-1.7,3.2-6.9,5.2-10,4.8
	c-1.5-0.2-2.9-0.9-2.9-1.6c0.2-1.3,2.3-1.6,4.8-1.8c0.7-0.1,1-0.4,0.9-1.2c0.2-1.2-0.2-4.9,0.6-6.3c0.1-0.2,0.3-0.4,0.4-0.6
	c0.5-0.7,0.9-1.4,1.3-2.1c0.4-0.7,0.7-1.5,0.9-2.3c0.1-0.2,0.1-0.3,0.2-0.4c1.5,0.9,2.7,2.2,3.5,3.7c-2.1,1.4-2.7,4.2-1.3,6.3
	C73.5,51.6,74,52.1,74.7,52.4L74.7,52.4z M80.5,50.3c-1,1.7-3.3,2.3-5,1.3c-1.8-1-2.4-3.2-1.4-5c1-1.7,3.3-2.3,5-1.3
	C80.9,46.3,81.5,48.6,80.5,50.3C80.5,50.3,80.5,50.3,80.5,50.3L80.5,50.3z M61.9,66.6c-3.6,0.1-8-3.4-9.2-6.3c-0.6-1.4-0.7-3,0-3.3
	c1.2-0.5,2.5,1.2,4,3.3c0.5,0.6,0.8,0.6,1.5,0.1c1.1-0.4,4.2-2.6,5.8-2.6c0.2,0,0.4,0,0.7,0c0.8,0.1,1.6,0.1,2.4,0
	c0.8,0,1.6-0.2,2.4-0.3l0.5,0c-0.1,1.7-0.5,3.4-1.4,4.9c-2.3-1.1-5-0.2-6.1,2.1C62.1,65.1,61.9,65.8,61.9,66.6L61.9,66.6z
	 M66.7,70.6c-2,0-3.6-1.7-3.6-3.7c0-2,1.6-3.7,3.6-3.7c2,0,3.6,1.7,3.6,3.7c0,0,0,0,0,0C70.3,68.9,68.7,70.6,66.7,70.6
	C66.7,70.6,66.7,70.6,66.7,70.6L66.7,70.6z M43.3,62.6c-1.9-3.1-1.1-8.6,0.8-11.1c0.9-1.2,2.2-2.1,2.9-1.7c1.1,0.8,0.2,2.8-0.8,5.1
	c-0.3,0.7-0.1,1.1,0.7,1.4c0.9,0.8,4.3,2.3,5.1,3.7c0.1,0.2,0.2,0.4,0.3,0.6c0.3,0.7,0.7,1.5,1.2,2.1c0.5,0.7,1,1.3,1.5,1.9
	c0.1,0.1,0.2,0.3,0.3,0.4c-1.5,0.8-3.2,1.2-4.9,1.2c-0.2-2.5-2.3-4.4-4.9-4.3C44.7,62,44,62.2,43.3,62.6L43.3,62.6z M42.2,68.7
	c-1-1.8-0.4-4,1.4-5c1.7-1,4-0.5,5,1.3c1,1.8,0.4,4-1.4,5c0,0,0,0,0,0C45.5,71,43.3,70.5,42.2,68.7L42.2,68.7z M37.5,44.5
	c1.7-3.2,6.9-5.2,10-4.8c1.5,0.2,2.9,0.9,2.9,1.6c-0.2,1.3-2.3,1.6-4.8,1.8c-0.7,0.1-1,0.4-0.9,1.2c-0.2,1.2,0.2,4.9-0.6,6.3
	c-0.1,0.2-0.3,0.4-0.4,0.5c-0.5,0.7-0.9,1.4-1.3,2.1c-0.4,0.7-0.7,1.5-0.9,2.3c-0.1,0.2-0.1,0.3-0.2,0.4c-1.5-0.9-2.7-2.2-3.5-3.7
	c2.1-1.4,2.7-4.2,1.3-6.3C38.7,45.4,38.1,44.9,37.5,44.5L37.5,44.5z M31.6,46.6c1-1.7,3.3-2.3,5-1.3c1.8,1,2.4,3.2,1.4,5
	c-1,1.7-3.3,2.3-5,1.3C31.2,50.6,30.6,48.4,31.6,46.6L31.6,46.6z M50.2,30.4c3.6-0.1,8,3.4,9.2,6.3c0.6,1.4,0.7,3,0,3.3
	c-1.2,0.5-2.5-1.2-4-3.3c-0.5-0.6-0.8-0.6-1.5-0.1c-1.1,0.4-4.2,2.6-5.8,2.6c-0.2,0-0.4,0-0.7,0c-0.8-0.1-1.6-0.1-2.4,0
	c-0.8,0-1.6,0.2-2.4,0.3l-0.5,0c0.1-1.7,0.5-3.4,1.4-4.9c2.3,1.1,5,0.2,6.1-2.1C50,31.9,50.2,31.1,50.2,30.4L50.2,30.4z M45.4,26.4
	c2,0,3.6,1.7,3.6,3.7c0,2-1.6,3.7-3.6,3.7c-2,0-3.6-1.7-3.6-3.7C41.8,28,43.4,26.4,45.4,26.4L45.4,26.4z"/>
</svg>
